<?xml version="1.0" standalone="no"?>
<!DOCTYPE svg PUBLIC "-//W3C//DTD SVG 20010904//EN"
 "http://www.w3.org/TR/2001/REC-SVG-20010904/DTD/svg10.dtd">
<svg version="1.0" xmlns="http://www.w3.org/2000/svg"
 width="901.000000pt" height="901.000000pt" viewBox="0 0 901.000000 901.000000"
 preserveAspectRatio="xMidYMid meet">
<metadata>
Created by potrace 1.11, written by Peter Selinger 2001-2013
</metadata>
<g transform="translate(0.000000,901.000000) scale(0.100000,-0.100000)"
fill="#000000" stroke="none">
<path d="M2440 8411 c0 -9 -8 -11 -25 -7 -15 4 -25 2 -25 -4 0 -7 -6 -8 -18
-1 -14 7 -25 6 -40 -5 -13 -9 -22 -11 -22 -5 0 14 -34 9 -56 -9 -16 -13 -17
-13 -9 0 7 12 6 13 -7 3 -8 -7 -18 -10 -21 -6 -4 3 -7 1 -7 -5 0 -7 -11 -12
-24 -12 -14 0 -28 -5 -31 -11 -4 -6 -13 -8 -21 -5 -8 3 -14 1 -14 -4 0 -12
-22 -9 -33 5 -5 6 -7 3 -3 -7 3 -10 1 -20 -4 -23 -6 -4 -10 0 -10 7 0 7 -5 5
-11 -6 -9 -15 -13 -16 -20 -5 -7 11 -9 10 -9 -4 0 -10 -4 -15 -10 -12 -5 3
-10 1 -10 -6 0 -7 -3 -9 -7 -6 -3 4 -11 0 -17 -8 -6 -8 -22 -16 -35 -18 -13
-2 -29 -11 -36 -20 -7 -9 -15 -14 -19 -10 -4 4 -4 -1 0 -10 3 -10 3 -17 -2
-16 -23 4 -45 -2 -39 -11 3 -5 -1 -10 -10 -10 -9 0 -13 -4 -10 -10 3 -6 -1 -7
-9 -4 -9 3 -25 -4 -38 -18 -13 -13 -20 -19 -15 -14 4 6 7 14 7 19 0 5 -9 -2
-21 -17 -11 -14 -27 -26 -35 -26 -8 0 -14 -5 -14 -11 0 -6 -7 -9 -15 -5 -8 3
-14 1 -12 -3 1 -5 -2 -9 -8 -9 -5 0 -9 5 -7 11 2 6 -4 5 -12 -3 -18 -14 -22
-25 -6 -15 23 14 8 -4 -16 -20 -18 -12 -24 -13 -19 -4 3 8 0 6 -8 -3 -11 -14
-16 -15 -26 -5 -10 9 -11 8 -5 -6 5 -13 2 -16 -12 -10 -11 4 -15 3 -11 -4 4
-6 0 -13 -8 -17 -8 -3 -15 0 -15 7 0 7 -7 4 -15 -7 -16 -22 -70 -52 -58 -33 4
7 0 7 -10 -2 -9 -7 -14 -18 -10 -25 3 -6 0 -5 -8 2 -11 11 -18 8 -39 -15 -14
-16 -23 -24 -20 -18 3 6 -3 2 -12 -8 -10 -11 -18 -16 -18 -12 0 4 -7 2 -15 -5
-8 -7 -12 -16 -9 -21 3 -5 -2 -6 -11 -3 -10 4 -15 2 -13 -7 2 -8 -3 -13 -9
-12 -7 2 -13 -4 -13 -12 0 -8 -7 -15 -15 -15 -8 0 -15 -7 -15 -15 0 -8 -4 -15
-8 -15 -5 0 -14 -10 -21 -22 -6 -13 -9 -15 -6 -5 3 10 1 15 -5 12 -6 -3 -10
-13 -10 -21 0 -8 -7 -17 -15 -20 -8 -4 -12 -11 -8 -17 4 -7 0 -8 -12 -3 -15 5
-16 4 -5 -9 10 -12 10 -15 -4 -15 -10 0 -15 -4 -11 -9 3 -6 -3 -15 -14 -21
-12 -6 -18 -18 -16 -30 2 -11 -1 -19 -8 -17 -7 1 -11 -6 -11 -16 2 -15 -1 -16
-14 -5 -13 11 -14 11 -8 0 5 -8 1 -21 -10 -33 -17 -19 -17 -20 2 -13 18 6 18
6 -1 -9 -11 -8 -24 -13 -30 -9 -5 3 -3 -3 5 -13 9 -11 10 -16 3 -11 -8 4 -13
2 -13 -7 0 -19 -30 -77 -40 -77 -4 0 -11 -7 -14 -16 -4 -10 -2 -13 7 -8 6 4 3
-2 -7 -14 -11 -12 -15 -22 -11 -22 5 0 0 -7 -11 -16 -10 -8 -12 -12 -4 -8 10
5 8 -1 -5 -16 -13 -15 -15 -21 -5 -16 8 4 6 0 -4 -8 -11 -9 -14 -16 -7 -16 7
0 9 -5 6 -10 -4 -6 -11 -7 -17 -4 -7 5 -9 2 -5 -8 3 -9 1 -20 -5 -26 -6 -6
-11 -21 -12 -34 -1 -13 -7 -22 -14 -21 -7 2 -10 -6 -8 -20 2 -12 -4 -31 -13
-41 -9 -11 -10 -16 -4 -12 9 5 11 2 7 -8 -3 -9 -10 -13 -15 -10 -5 3 -9 2 -8
-3 4 -23 -2 -54 -10 -49 -4 3 -8 -5 -7 -17 1 -12 -5 -28 -12 -36 -11 -12 -11
-15 0 -22 8 -6 9 -9 2 -9 -7 0 -15 -7 -18 -16 -4 -10 -2 -13 7 -9 6 4 3 -1 -7
-9 -15 -12 -16 -16 -5 -16 12 0 12 -2 -1 -10 -11 -7 -12 -10 -2 -10 10 0 9 -4
-3 -16 -12 -13 -13 -19 -4 -31 7 -8 8 -13 3 -11 -5 2 -9 1 -10 -2 0 -3 -6 -16
-13 -29 -11 -19 -11 -22 1 -15 8 5 7 -1 -4 -19 -10 -14 -18 -30 -18 -34 0 -4
5 -1 10 7 6 9 10 10 10 3 0 -6 -5 -15 -10 -18 -6 -4 -8 -11 -5 -16 4 -5 1 -9
-4 -9 -6 0 -11 -5 -11 -11 0 -5 4 -8 9 -5 8 5 8 -22 1 -31 -2 -2 -3 -9 -4 -15
-1 -7 -8 -12 -16 -10 -10 2 -11 0 -3 -10 14 -16 14 -29 2 -45 -7 -7 -6 -14 1
-18 15 -10 12 -28 -4 -22 -10 4 -13 1 -9 -8 3 -8 9 -12 14 -9 11 6 0 -25 -15
-45 -8 -11 -8 -13 0 -8 7 4 14 -3 16 -17 3 -15 1 -23 -6 -20 -7 3 -12 -5 -12
-16 0 -11 4 -20 9 -20 5 0 4 -6 -2 -14 -9 -10 -9 -16 -1 -21 8 -5 8 -11 -1
-21 -8 -10 -8 -14 0 -14 6 0 11 -8 11 -17 0 -15 -2 -16 -10 -3 -6 9 -10 10
-10 3 0 -6 5 -15 10 -18 8 -5 7 -11 -1 -21 -9 -11 -8 -14 2 -14 11 0 11 -2 -1
-10 -12 -7 -12 -10 -1 -10 7 0 11 -6 8 -14 -3 -7 0 -19 6 -25 9 -9 8 -11 -7
-5 -16 6 -17 4 -8 -13 6 -11 9 -23 5 -26 -3 -3 -2 -14 2 -24 5 -10 10 -26 12
-37 3 -16 1 -17 -12 -6 -14 11 -14 10 0 -16 10 -21 11 -31 3 -41 -8 -10 -7
-12 3 -8 9 3 15 -1 15 -12 1 -10 5 -27 9 -37 6 -13 5 -17 -2 -13 -6 4 -8 -3
-5 -18 2 -14 8 -25 13 -25 5 0 9 -5 9 -11 0 -5 -5 -7 -10 -4 -6 3 -10 1 -10
-4 0 -6 5 -11 11 -11 6 0 9 -6 7 -12 -3 -7 1 -24 8 -37 10 -20 11 -27 1 -33
-9 -6 -9 -8 1 -8 7 0 11 -4 7 -9 -3 -5 -1 -12 4 -16 6 -3 7 -13 4 -22 -4 -10
-2 -14 4 -10 6 4 9 -3 7 -18 -1 -14 2 -28 7 -31 6 -3 5 -11 -2 -20 -9 -11 -8
-14 4 -14 11 0 14 -5 10 -17 -4 -10 -2 -14 5 -9 7 4 10 -1 7 -14 -2 -11 2 -20
8 -20 7 0 6 -4 -3 -10 -9 -6 -10 -10 -3 -10 6 0 13 -12 15 -27 2 -17 8 -27 16
-25 10 2 10 -2 2 -18 -8 -15 -8 -20 1 -18 6 2 13 -6 15 -17 1 -11 4 -29 6 -40
4 -26 20 -44 33 -37 6 3 4 -2 -4 -11 -12 -15 -11 -20 8 -40 11 -13 21 -31 21
-40 0 -9 4 -17 10 -17 5 0 7 -7 4 -15 -4 -9 0 -15 7 -15 12 0 12 -2 1 -9 -11
-7 -11 -9 2 -14 9 -4 13 -14 11 -27 -3 -18 -2 -20 10 -10 12 10 15 9 15 -9 0
-11 6 -21 13 -21 8 0 7 -4 -3 -10 -9 -6 -10 -10 -3 -10 6 0 17 -16 23 -36 7
-21 17 -33 24 -31 7 3 13 -1 13 -9 0 -7 -5 -10 -11 -7 -12 7 23 -38 38 -48 5
-4 6 -11 3 -16 -3 -5 3 -17 14 -26 11 -10 17 -23 13 -29 -4 -7 -3 -8 4 -4 6 3
16 -3 22 -14 6 -11 8 -20 5 -20 -3 0 7 -12 22 -26 15 -15 20 -21 11 -14 -10 7
-18 8 -18 3 0 -13 37 -42 46 -35 4 4 5 2 1 -3 -6 -11 18 -62 27 -57 15 6 19 1
6 -8 -13 -8 -12 -10 3 -10 10 0 15 -4 12 -10 -3 -5 1 -10 10 -10 9 0 14 -4 11
-9 -3 -5 1 -12 10 -15 9 -4 14 -13 10 -21 -3 -8 -2 -14 2 -14 22 4 32 -5 43
-36 11 -29 15 -32 28 -22 12 10 13 9 2 -11 -6 -12 -8 -21 -3 -20 10 3 62 -51
62 -64 0 -5 5 -6 10 -3 6 3 10 -1 10 -10 0 -9 4 -13 10 -10 5 3 10 -1 10 -9 0
-9 7 -16 15 -16 8 0 15 -4 15 -10 0 -5 0 -13 1 -17 0 -5 11 -14 25 -21 13 -7
22 -18 18 -24 -4 -7 2 -8 17 -3 13 3 19 3 12 -2 -8 -6 -8 -12 1 -25 7 -10 16
-15 19 -11 4 3 9 -2 13 -11 3 -9 16 -16 28 -16 17 0 18 -2 6 -10 -13 -8 -12
-10 3 -10 10 0 16 -3 14 -7 -3 -5 1 -14 9 -21 11 -10 14 -10 14 0 0 9 3 9 9
-2 6 -8 7 -18 4 -24 -3 -5 -1 -6 5 -2 7 4 12 2 12 -3 0 -6 6 -10 13 -8 6 1 11
-4 9 -12 -2 -9 3 -11 13 -7 9 3 14 2 11 -2 -3 -5 4 -14 14 -22 10 -8 17 -17
14 -22 -3 -4 2 -8 11 -8 9 0 13 -4 10 -10 -3 -5 -1 -10 5 -10 7 0 9 -7 6 -16
-3 -8 -2 -13 2 -10 4 2 12 -7 19 -20 8 -18 8 -23 0 -18 -7 3 -1 -4 13 -16 14
-12 19 -19 13 -15 -15 7 -18 -11 -4 -19 5 -4 8 -14 6 -24 -1 -9 2 -23 8 -29 6
-9 6 -13 -3 -13 -8 0 -9 -5 -4 -12 5 -7 9 -26 9 -43 0 -16 5 -33 10 -37 6 -5
5 -8 -3 -8 -7 0 -10 -5 -7 -10 4 -6 10 -8 14 -6 4 3 6 -8 3 -23 -2 -16 2 -39
9 -52 11 -22 11 -23 -4 -11 -14 12 -15 11 -7 -17 6 -23 5 -35 -6 -46 -10 -9
-11 -15 -4 -15 7 0 5 -7 -4 -16 -9 -8 -14 -20 -11 -25 4 -5 -4 -9 -17 -10 -13
0 -18 -3 -11 -6 10 -3 10 -7 0 -18 -7 -7 -16 -10 -22 -7 -5 3 -3 -3 5 -13 9
-11 10 -16 2 -11 -7 4 -19 0 -28 -8 -9 -9 -20 -14 -25 -11 -5 4 -6 -2 -2 -12
3 -10 2 -15 -2 -11 -5 5 -16 -6 -26 -22 -11 -17 -26 -30 -36 -30 -9 0 -13 -3
-10 -6 4 -4 -5 -17 -19 -29 -18 -15 -24 -27 -18 -36 6 -12 5 -12 -8 -1 -14 11
-16 10 -11 -7 3 -12 1 -21 -4 -21 -5 0 -17 -15 -25 -34 -13 -26 -14 -36 -5
-45 9 -9 8 -11 -6 -5 -13 4 -16 2 -11 -9 3 -8 0 -18 -5 -22 -6 -3 -9 -11 -6
-16 4 -5 -2 -9 -12 -10 -10 0 -13 -3 -5 -6 6 -2 12 -11 12 -18 0 -7 -6 -16
-12 -18 -10 -4 -9 -8 2 -16 13 -9 12 -11 -4 -11 -15 0 -16 -3 -7 -14 9 -11 8
-15 -4 -20 -13 -5 -14 -10 -4 -27 8 -15 8 -19 0 -15 -7 4 -11 -1 -11 -13 0
-11 5 -23 10 -26 7 -4 6 -13 -1 -27 -8 -14 -8 -23 0 -31 6 -6 7 -16 1 -27 -10
-19 -9 -38 4 -59 7 -10 6 -12 -4 -6 -10 6 -12 3 -7 -13 4 -12 10 -32 14 -44 5
-16 3 -19 -7 -13 -8 5 -4 -5 7 -21 15 -21 19 -34 12 -46 -6 -11 -4 -18 7 -22
13 -5 14 -9 4 -21 -10 -12 -9 -16 3 -21 9 -3 13 -12 10 -20 -3 -8 -2 -14 3
-13 21 4 28 -2 14 -12 -11 -8 -12 -12 -2 -16 6 -2 10 -9 6 -14 -3 -5 0 -9 6
-9 6 0 8 -4 5 -10 -3 -5 -1 -10 6 -10 6 0 9 -8 6 -20 -3 -13 0 -20 9 -20 8 0
14 -9 14 -20 0 -11 5 -20 11 -20 5 0 8 -4 5 -9 -3 -5 7 -28 23 -52 16 -24 27
-47 24 -53 -3 -5 -1 -6 6 -2 6 4 8 13 5 19 -4 7 -3 8 2 4 5 -5 9 -12 9 -15 2
-26 19 -53 30 -48 9 3 12 -2 10 -15 -3 -15 0 -19 10 -15 10 3 12 0 8 -11 -4
-11 -2 -14 5 -9 7 4 12 3 12 -2 0 -15 41 -53 51 -46 5 3 9 2 8 -3 -3 -17 1
-33 9 -30 4 1 8 -2 9 -6 3 -13 37 -36 45 -31 5 3 8 -2 8 -10 0 -9 7 -16 15
-16 8 0 15 -5 15 -11 0 -6 7 -8 16 -5 8 3 13 2 11 -2 -3 -4 7 -18 21 -32 13
-14 22 -19 18 -12 -4 6 -3 12 3 12 5 0 13 -9 16 -20 3 -11 13 -20 20 -20 8 0
21 -10 31 -22 11 -16 15 -17 11 -5 -4 9 -3 17 2 17 5 0 12 -11 15 -24 4 -15
13 -23 23 -22 12 0 17 -5 16 -17 0 -10 2 -16 5 -13 12 13 48 -66 44 -97 -8
-75 -8 -97 2 -97 6 0 4 -5 -4 -10 -12 -8 -13 -12 -2 -19 11 -7 10 -9 -3 -14
-13 -5 -14 -11 -5 -27 6 -11 8 -20 5 -20 -3 0 -1 -8 4 -18 7 -13 7 -22 -1 -30
-8 -8 -6 -15 6 -27 17 -18 22 -30 7 -21 -5 3 -11 -1 -15 -9 -3 -8 0 -14 7 -12
7 1 11 -8 11 -20 -1 -13 3 -20 7 -17 8 4 14 -34 10 -58 0 -5 3 -8 9 -8 5 0 6
-7 3 -17 -4 -10 -2 -14 5 -9 6 3 16 -3 22 -15 8 -14 8 -19 1 -15 -6 4 -3 -7 7
-23 9 -17 22 -31 29 -31 6 0 9 -9 6 -20 -4 -14 0 -20 12 -20 11 0 15 -5 11
-16 -3 -8 -2 -12 4 -9 6 3 10 1 10 -5 0 -6 4 -9 9 -5 6 3 8 -3 6 -14 -3 -15 0
-18 13 -14 15 6 15 4 4 -9 -11 -14 -10 -16 8 -11 11 3 20 2 19 -3 -4 -23 3
-34 22 -34 17 0 19 -3 10 -14 -10 -12 -8 -14 13 -12 14 2 25 0 24 -3 -2 -19 4
-31 15 -31 7 0 19 -9 27 -19 7 -11 17 -18 22 -15 4 3 8 1 8 -5 0 -5 9 -13 20
-16 11 -4 18 -11 15 -16 -4 -5 3 -9 15 -9 12 0 18 -4 15 -11 -4 -6 0 -9 11 -7
12 2 18 -2 16 -11 -2 -8 3 -11 12 -8 8 3 17 -1 20 -10 4 -8 13 -13 21 -9 13 5
19 -5 16 -26 0 -3 10 -5 24 -4 13 2 26 -3 29 -11 3 -8 10 -11 16 -8 5 3 10 0
10 -7 0 -9 3 -9 10 2 9 13 10 13 10 0 0 -8 11 -20 25 -27 19 -8 24 -8 19 0 -3
7 1 4 9 -6 10 -12 17 -15 22 -7 5 8 11 8 21 -1 7 -6 12 -15 9 -19 -3 -5 3 -7
12 -6 10 2 24 -3 31 -11 7 -7 18 -13 25 -13 6 0 2 7 -9 16 -18 14 -18 15 4 4
12 -6 22 -15 22 -21 0 -6 5 -7 10 -4 5 3 10 2 10 -4 0 -6 6 -8 13 -5 8 3 20
-2 27 -11 7 -8 18 -15 24 -15 6 0 4 5 -4 10 -9 6 -10 10 -3 10 6 0 19 -10 27
-22 11 -15 16 -18 16 -8 0 10 3 11 8 4 7 -10 36 -24 48 -23 3 0 11 -7 18 -17
7 -9 18 -14 24 -10 8 4 12 0 12 -11 0 -15 2 -16 10 -3 8 13 10 12 10 -3 0 -10
6 -17 12 -15 7 3 21 -5 31 -16 10 -12 16 -15 12 -8 -3 6 -2 12 4 12 5 0 13 -9
16 -20 4 -11 11 -18 16 -15 5 4 12 -1 15 -9 3 -9 15 -16 26 -16 13 0 17 -4 12
-12 -6 -10 -4 -10 8 0 13 10 18 10 24 1 4 -8 3 -9 -4 -5 -7 4 -12 2 -12 -5 0
-6 8 -9 20 -6 13 3 25 -2 33 -14 8 -10 17 -16 20 -12 4 3 7 1 7 -6 0 -8 7 -11
15 -7 9 3 15 0 15 -10 0 -8 4 -12 10 -9 5 3 10 2 10 -3 0 -5 11 -8 25 -7 14 2
23 0 20 -5 -3 -4 2 -11 11 -14 9 -4 13 -2 8 5 -3 6 5 3 20 -6 14 -9 32 -15 40
-12 8 3 23 -3 35 -14 12 -11 21 -15 21 -9 0 5 5 10 11 10 6 0 9 -6 6 -12 -3
-9 7 -13 34 -13 22 0 39 4 39 8 0 5 5 5 12 1 21 -13 79 -13 72 0 -3 6 2 2 10
-8 16 -19 16 -19 16 4 0 23 0 23 15 4 8 -10 15 -14 15 -8 0 7 11 9 26 6 21 -4
25 -2 19 9 -7 11 -5 11 10 -1 11 -9 16 -10 11 -2 -5 8 0 12 18 12 14 0 28 5
31 11 4 6 13 8 21 5 7 -3 16 -1 19 4 4 6 12 10 18 10 7 0 6 -4 -3 -11 -13 -9
-13 -10 0 -5 8 3 23 9 33 12 9 4 17 11 17 18 0 6 5 4 10 -4 5 -8 10 -10 10 -3
0 6 11 10 25 8 14 -1 25 3 25 9 0 7 3 7 8 1 9 -13 46 -19 38 -6 -4 5 -1 13 5
17 7 4 10 3 7 -2 -3 -5 0 -15 8 -22 8 -7 14 -9 14 -4 0 4 11 8 25 8 14 0 25
-4 25 -8 0 -5 12 -5 26 -2 17 4 25 3 21 -3 -4 -6 10 -11 31 -12 20 -1 43 -3
50 -3 6 -1 12 -6 12 -12 0 -6 5 -4 10 4 5 8 10 10 10 4 0 -6 24 -10 63 -8 34
1 68 -3 76 -10 11 -8 13 -8 8 0 -10 16 18 25 33 11 9 -8 11 -9 7 -1 -4 7 2 14
13 17 11 3 20 0 20 -6 0 -7 5 -4 11 5 5 10 15 18 22 18 7 0 6 -4 -3 -10 -12
-7 -10 -9 7 -7 12 0 20 4 17 8 -3 6 53 23 69 20 4 0 7 3 7 9 0 5 5 10 11 10 5
0 7 -5 3 -12 -4 -7 -3 -8 4 -4 7 4 12 14 12 22 0 8 5 14 11 14 5 0 7 -4 4 -10
-3 -5 0 -7 9 -4 8 3 17 12 20 20 3 9 10 12 16 9 5 -3 10 -2 10 2 0 5 15 15 34
21 19 7 37 19 40 27 3 8 12 12 19 9 9 -3 17 4 21 18 5 19 8 21 16 8 8 -12 11
-11 16 8 5 18 9 20 15 10 7 -10 9 -8 9 6 0 11 3 17 6 13 4 -3 13 1 21 9 8 8
19 11 25 8 7 -4 8 -2 4 4 -4 7 -1 12 7 12 8 0 22 11 33 24 10 14 21 23 26 20
4 -3 8 -1 8 5 0 5 9 12 20 16 11 3 19 12 17 18 -1 7 6 11 15 11 10 -1 15 2 12
7 -3 5 7 14 21 19 14 5 24 14 21 19 -3 5 2 15 11 22 12 10 14 10 9 2 -4 -7 -3
-13 1 -13 10 0 38 42 35 52 -1 4 4 5 12 2 8 -3 17 0 22 7 5 8 3 10 -6 4 -8 -5
-11 -4 -6 3 3 6 15 9 26 7 12 -2 19 -1 16 3 -2 4 2 13 10 20 8 7 14 10 14 6 0
-4 9 5 21 20 11 14 27 26 35 26 8 0 14 5 14 10 0 6 6 10 13 10 8 0 23 8 35 17
34 29 62 48 73 48 5 0 13 6 18 13 5 8 11 13 15 13 20 -3 26 0 20 11 -4 7 -4
10 1 6 4 -4 15 -2 23 5 13 10 15 9 8 -3 -6 -12 -4 -11 6 1 7 9 19 14 26 12 6
-3 12 0 12 6 0 6 7 8 15 5 8 -4 17 1 21 10 3 9 10 16 16 16 5 0 6 -5 3 -11 -4
-6 2 -5 14 3 12 7 21 17 21 23 0 5 5 3 10 -5 8 -12 10 -12 10 -1 0 9 8 12 25
9 15 -3 22 -1 18 5 -4 6 0 8 10 4 9 -3 19 -2 22 3 3 5 12 7 20 3 8 -3 15 0 15
6 0 6 5 11 11 11 5 0 7 -6 3 -12 -6 -10 -5 -10 8 -1 8 7 18 10 21 6 4 -3 7 0
7 8 0 11 2 11 10 -1 5 -8 10 -10 10 -4 0 7 7 15 16 18 8 3 12 2 9 -3 -3 -5 -1
-12 5 -16 5 -3 10 2 10 12 0 15 2 16 10 3 8 -13 14 -8 12 11 -1 3 5 6 13 6 8
0 12 -4 9 -8 -2 -4 5 -7 16 -6 11 1 20 5 20 9 0 4 5 8 11 8 5 0 8 -4 5 -8 -9
-15 29 -10 48 7 11 9 16 10 12 4 -4 -8 -1 -13 9 -13 9 0 14 3 12 7 -3 5 8 8
23 8 15 0 26 -3 23 -7 -6 -11 5 -10 29 3 12 7 18 7 14 1 -3 -6 1 -9 10 -8 8 1
20 9 25 17 7 11 9 11 9 -3 0 -10 5 -18 11 -18 5 0 7 5 3 11 -4 7 1 7 16 -1 13
-7 20 -8 16 -2 -4 7 4 9 21 8 16 -2 34 1 42 8 11 8 13 8 8 0 -4 -7 1 -14 12
-17 13 -3 18 0 15 7 -3 7 2 13 10 13 8 0 12 -5 9 -10 -4 -6 -1 -7 8 -1 21 13
39 14 39 1 0 -8 3 -8 8 1 5 6 33 14 63 16 30 3 63 8 73 12 15 6 17 4 11 -6 -5
-9 -4 -11 4 -6 6 4 8 12 5 18 -5 7 0 9 15 5 14 -3 24 0 27 8 3 7 14 11 25 8
11 -3 19 0 19 7 0 7 8 10 20 7 11 -3 20 -1 20 5 0 6 7 8 15 4 8 -3 21 1 29 9
7 8 16 11 20 8 3 -4 13 2 22 13 8 10 13 13 9 7 -4 -8 6 -6 24 4 16 10 27 21
25 25 -3 5 0 8 5 8 6 0 11 -5 11 -12 0 -6 7 -3 16 8 8 10 13 12 9 4 -4 -10 -2
-9 8 3 8 9 19 17 26 17 6 0 11 4 11 10 0 5 7 6 17 3 11 -4 14 -3 9 5 -6 11 5
17 27 13 4 0 7 3 7 9 0 5 7 10 15 10 8 0 15 5 15 10 0 6 5 10 11 10 7 0 18 8
26 18 9 11 12 12 8 2 -4 -8 3 -4 14 10 11 14 21 21 21 17 0 -5 7 -1 16 7 8 9
20 13 26 10 7 -4 8 -2 4 4 -8 13 28 35 39 24 5 -4 5 -1 1 6 -4 7 -1 12 9 12 9
0 14 4 11 9 -3 5 6 12 19 15 16 4 23 11 19 18 -5 8 -1 9 10 5 14 -5 17 -3 12
8 -3 8 -1 15 3 15 5 0 12 -6 14 -12 3 -7 6 1 7 17 0 26 2 27 11 12 12 -20 29
-14 29 11 0 20 36 46 51 37 5 -4 9 -3 8 2 -3 20 2 34 11 28 6 -3 10 1 10 10 0
9 5 13 10 10 6 -3 10 -1 10 5 0 6 4 8 10 5 6 -3 7 1 4 9 -4 10 -1 16 9 16 9 0
20 8 26 18 5 9 13 16 18 16 4 -1 7 2 5 7 -1 5 3 9 9 9 5 0 8 4 5 9 -3 5 1 12
10 15 10 4 14 12 10 22 -6 15 -4 15 11 3 11 -9 14 -10 9 -1 -4 6 -3 12 2 12 5
0 18 12 28 28 13 19 13 24 3 17 -8 -5 -7 -3 3 6 9 9 14 19 11 23 -3 3 2 8 11
12 9 3 13 10 10 15 -3 5 0 9 5 9 6 0 11 9 11 19 0 24 16 36 24 19 4 -9 5 -8 5
2 -3 38 1 51 14 44 9 -6 9 -4 -1 8 -10 13 -10 18 -1 24 8 5 9 3 4 -6 -5 -8 -4
-11 3 -6 6 4 9 13 5 21 -3 8 0 15 7 15 10 0 10 3 1 14 -8 9 -8 15 -1 18 11 3
22 40 22 71 -1 9 5 17 11 17 8 0 8 3 2 8 -5 4 -10 19 -10 34 -1 21 2 25 12 16
11 -9 12 -6 4 16 -6 14 -7 26 -3 26 4 0 0 5 -8 10 -8 5 -10 10 -4 10 13 0 13
117 0 138 -4 7 -2 20 6 29 11 14 11 16 -2 8 -13 -8 -13 -7 -1 8 9 12 10 17 2
17 -7 0 -9 5 -6 10 4 6 10 8 15 5 4 -3 4 11 0 30 -7 29 -5 35 9 36 9 0 11 3 4
5 -7 3 -9 12 -6 20 3 7 10 11 17 7 7 -4 7 -1 -1 7 -10 11 -9 16 5 27 12 10 12
12 2 8 -12 -5 -12 -4 1 7 9 7 14 18 12 25 -2 6 1 14 6 18 6 3 11 15 11 26 0
10 5 19 11 19 6 0 9 9 6 20 -4 17 -3 18 16 8 20 -10 21 -10 8 5 -7 10 -10 17
-6 17 4 0 2 7 -5 15 -11 13 -10 14 2 10 9 -4 18 1 22 12 4 10 2 19 -3 21 -6 2
-11 8 -11 13 0 6 4 8 9 5 11 -7 20 14 14 32 -3 6 -10 9 -16 5 -7 -4 -6 1 2 10
11 14 11 17 0 17 -11 0 -11 2 1 10 13 8 12 10 -3 10 -14 0 -16 4 -8 18 7 14 6
19 -4 19 -8 0 -11 -5 -8 -11 4 -6 -3 -2 -15 8 -26 23 -26 20 -5 42 13 13 14
16 3 12 -8 -3 -21 2 -28 11 -8 9 -11 10 -7 4 4 -8 0 -13 -10 -13 -8 0 -18 6
-21 14 -3 8 -12 12 -20 9 -10 -4 -12 0 -8 13 6 17 5 17 -10 -1 -16 -20 -16
-20 -31 -1 -8 11 -15 14 -15 8 0 -7 -7 -12 -15 -12 -8 0 -15 5 -15 10 0 6 -5
10 -11 10 -5 0 -7 -5 -4 -10 7 -11 -8 -14 -19 -3 -11 11 -36 12 -36 1 0 -6 8
-7 18 -3 14 5 15 4 5 -6 -10 -10 -16 -10 -25 -1 -9 9 -15 7 -25 -6 -8 -9 -12
-11 -8 -4 3 6 2 12 -4 12 -5 0 -12 -6 -14 -12 -4 -10 -6 -10 -6 0 -1 10 -5 10
-17 -2 -8 -9 -20 -13 -26 -10 -6 4 -14 0 -19 -7 -8 -12 -11 -12 -19 1 -6 9
-10 10 -10 3 0 -6 -9 -15 -20 -18 -11 -4 -17 -11 -14 -17 5 -7 2 -8 -6 -3 -7
4 -16 2 -21 -6 -7 -12 -9 -11 -9 1 -1 9 -6 5 -15 -10 -8 -14 -14 -19 -15 -11
0 9 -7 6 -20 -9 -11 -13 -20 -18 -20 -11 0 7 -5 9 -10 6 -8 -5 -7 -11 0 -20 9
-11 8 -13 -8 -10 -14 2 -22 -3 -25 -17 -4 -13 -11 -19 -21 -15 -8 3 -18 1 -22
-5 -5 -7 -2 -8 7 -4 8 4 5 0 -5 -8 -11 -9 -16 -16 -10 -17 5 0 -2 -4 -14 -10
-13 -5 -22 -14 -20 -21 6 -16 -23 -48 -36 -41 -6 4 -4 -2 4 -12 12 -15 12 -17
1 -10 -11 6 -13 4 -7 -10 5 -15 4 -16 -9 -5 -13 11 -14 10 -10 -3 4 -8 2 -18
-4 -21 -7 -4 -7 -15 -1 -31 10 -26 -1 -41 -22 -29 -7 4 -8 3 -4 -4 4 -7 1 -12
-6 -12 -10 0 -10 -2 1 -9 10 -7 11 -13 1 -31 -10 -18 -9 -24 1 -31 12 -8 7
-12 -11 -11 -3 0 -6 -8 -6 -18 0 -10 3 -17 7 -14 12 7 4 -23 -11 -42 -8 -10
-10 -15 -3 -11 8 5 11 1 10 -12 0 -11 -5 -17 -11 -14 -5 4 -7 -6 -4 -21 3 -16
0 -33 -8 -41 -11 -10 -11 -14 -1 -18 9 -3 9 -7 -1 -19 -9 -12 -10 -17 -1 -20
7 -2 5 -9 -7 -18 -14 -12 -16 -12 -9 -1 5 10 4 12 -4 7 -9 -6 -9 -11 1 -24 10
-12 10 -14 1 -8 -8 4 -13 2 -13 -6 0 -26 -25 -67 -47 -79 -12 -7 -20 -16 -17
-21 3 -4 0 -8 -6 -8 -6 0 -8 -4 -5 -10 4 -6 -1 -7 -11 -3 -12 4 -15 3 -10 -5
5 -8 1 -10 -10 -5 -13 5 -16 3 -11 -10 4 -11 1 -15 -13 -12 -11 2 -19 1 -19
-3 1 -4 1 -14 0 -22 -1 -13 -2 -13 -11 0 -7 11 -10 11 -10 2 0 -7 -4 -10 -10
-7 -5 3 -10 2 -10 -3 0 -6 -8 -9 -17 -8 -10 0 -17 -5 -15 -12 1 -8 -2 -11 -8
-7 -6 4 -17 2 -24 -4 -8 -7 -18 -11 -22 -9 -19 5 -54 -14 -47 -25 4 -8 1 -7
-9 1 -13 10 -19 10 -32 -3 -10 -11 -16 -12 -16 -4 0 9 -3 9 -15 -1 -8 -6 -19
-9 -24 -6 -5 4 -12 2 -15 -3 -7 -11 -45 -9 -64 3 -8 5 -10 2 -6 -8 4 -10 0
-14 -13 -11 -10 1 -17 8 -15 15 1 6 -2 9 -8 5 -6 -3 -8 -11 -5 -16 4 -5 2 -9
-4 -9 -5 0 -12 6 -14 13 -4 8 -6 8 -6 -2 -1 -11 -5 -10 -16 5 -15 19 -15 19
-10 -1 5 -16 3 -16 -6 2 -7 13 -18 23 -26 23 -8 0 -11 5 -7 12 5 8 2 9 -9 5
-10 -3 -17 -2 -17 3 0 6 6 10 13 10 8 0 7 4 -3 10 -13 9 -13 10 0 10 12 0 12
2 2 9 -11 6 -9 16 8 45 11 21 16 35 10 31 -5 -3 -10 -2 -10 4 0 5 5 11 11 13
7 2 12 18 13 35 1 16 7 38 15 47 12 14 12 16 -5 10 -15 -4 -13 -1 6 16 14 12
18 18 10 14 -13 -7 -13 -5 -1 9 7 9 10 17 7 17 -4 0 -2 9 4 20 6 11 15 18 20
15 5 -3 7 3 5 14 -2 11 3 25 11 32 12 10 14 9 9 -7 -3 -10 2 -4 10 14 9 18 20
30 25 27 6 -3 10 1 10 11 0 14 3 14 15 4 13 -11 14 -10 9 4 -4 11 -1 16 10 16
9 0 16 5 16 11 0 6 7 8 16 5 8 -3 12 -2 9 4 -3 6 -1 10 5 10 6 0 8 4 5 10 -3
6 1 7 9 4 9 -3 16 -1 16 5 0 6 6 10 13 9 6 -2 11 3 9 10 -1 8 2 11 8 7 6 -4
18 1 26 11 9 11 12 13 9 6 -6 -11 -3 -11 14 -1 14 10 17 15 8 21 -8 5 -5 8 8
9 11 1 24 1 28 0 5 -1 6 2 3 7 -3 5 6 14 19 20 14 7 25 16 25 22 0 6 5 8 10 5
6 -3 10 0 10 8 0 8 10 22 22 33 20 18 21 18 15 1 -4 -12 -3 -16 4 -11 6 3 9
14 6 24 -3 12 0 17 8 14 15 -6 39 22 30 36 -4 6 -1 9 7 8 7 -2 12 3 10 11 -2
11 0 12 11 2 15 -12 19 -8 27 24 2 6 11 16 22 23 10 7 16 17 13 22 -3 5 -1 11
5 15 6 4 8 10 5 15 -3 4 3 7 13 6 9 0 17 6 17 15 0 9 6 23 13 31 6 8 9 18 5
22 -4 4 0 4 10 0 13 -4 16 -2 11 9 -3 8 0 18 7 23 8 5 10 3 4 -6 -5 -9 -4 -11
4 -6 9 6 9 11 0 22 -10 12 -10 15 2 12 8 -2 14 4 14 12 0 8 8 26 17 39 9 13
14 30 11 39 -5 11 -2 14 10 9 12 -4 15 -1 12 14 -2 10 2 19 8 19 7 0 6 4 -3
10 -8 5 -10 10 -4 10 19 0 43 64 32 84 -8 15 -8 17 2 11 10 -6 12 -3 7 9 -5
14 -3 17 8 12 8 -3 15 -1 15 4 0 6 -4 10 -8 10 -5 0 -9 7 -9 15 0 8 5 15 10
15 5 0 7 7 4 15 -4 8 -2 17 4 20 5 4 7 11 4 16 -4 5 -1 9 4 9 6 0 11 5 11 11
0 5 -4 8 -9 5 -5 -4 -8 1 -7 10 1 8 9 20 17 25 8 5 9 9 2 9 -13 0 -12 18 1 39
6 10 5 12 -3 7 -15 -10 -11 25 4 36 6 5 5 8 -3 8 -8 0 -10 5 -5 13 11 18 13
38 2 31 -5 -3 -9 0 -9 5 0 6 4 11 8 11 12 0 7 42 -8 70 -13 24 -12 24 5 10 17
-14 18 -14 6 9 -7 13 -13 39 -13 57 0 19 -7 41 -15 49 -13 14 -10 19 9 16 4 0
5 6 2 14 -4 8 -9 13 -14 10 -4 -2 -6 7 -4 20 1 14 -1 25 -6 25 -4 0 -11 7 -14
16 -4 10 -2 13 7 8 8 -6 8 -3 -1 9 -8 9 -10 22 -6 28 4 7 3 9 -4 5 -6 -4 -12
3 -14 16 -2 13 -9 22 -15 21 -6 -1 -9 6 -6 17 3 12 0 20 -6 20 -7 0 -10 4 -6
9 3 6 -7 22 -22 37 -16 14 -22 23 -15 20 6 -4 12 -2 12 3 0 6 -6 11 -12 11 -9
0 -8 4 2 10 12 8 10 10 -9 10 -17 0 -22 4 -17 16 3 8 2 12 -3 9 -5 -3 -12 4
-16 15 -3 11 -11 20 -16 20 -6 0 -7 4 -4 10 3 6 -1 10 -9 10 -9 0 -16 5 -16
11 0 5 -4 8 -9 5 -4 -3 -8 4 -7 15 1 15 -10 27 -34 40 -19 10 -46 31 -60 47
-14 15 -21 22 -16 15 5 -8 4 -13 -2 -13 -12 0 -24 29 -17 41 4 5 -1 6 -9 3
-12 -5 -33 8 -70 42 -6 6 -17 9 -24 6 -6 -2 -12 5 -12 15 0 15 -2 16 -10 3 -6
-10 -10 -11 -10 -2 0 6 -7 12 -15 12 -8 0 -15 4 -15 8 0 4 -9 8 -20 9 -24 2
-52 27 -42 39 4 5 -1 2 -10 -5 -13 -10 -18 -10 -18 -2 0 7 -4 9 -10 6 -5 -3
-10 2 -10 12 0 15 -2 16 -10 3 -5 -8 -10 -10 -10 -4 0 7 -7 15 -16 18 -14 5
-15 4 -4 -9 11 -13 10 -14 -4 -9 -9 3 -16 14 -16 23 0 14 -2 14 -10 1 -6 -10
-10 -11 -10 -2 0 6 -8 12 -18 12 -10 0 -24 6 -31 13 -11 10 -12 9 -6 -3 8 -13
7 -13 -9 -1 -9 8 -29 16 -44 18 -47 5 -50 6 -45 19 2 6 -1 15 -8 20 -8 5 -10
3 -4 -7 7 -11 6 -12 -7 -2 -8 7 -18 10 -21 6 -4 -3 -7 -1 -7 6 0 7 -5 9 -11 5
-8 -5 -8 -1 0 14 16 29 14 37 -6 21 -15 -13 -15 -12 -5 7 6 12 8 25 4 29 -4 5
-1 5 6 1 9 -6 12 -2 10 10 -2 13 2 18 12 16 8 -2 12 0 8 3 -11 11 10 45 27 45
8 0 15 7 15 16 0 8 4 13 9 9 6 -3 15 4 21 15 8 14 17 19 28 15 9 -3 13 -3 9 1
-4 5 3 14 15 22 16 9 17 12 4 7 -16 -4 -17 -3 -7 9 7 8 19 12 27 9 9 -3 14 2
14 16 0 15 4 19 17 14 11 -4 14 -3 9 5 -4 7 -2 12 4 12 6 0 9 4 6 9 -3 5 1 12
10 15 10 4 13 2 8 -7 -4 -6 3 -2 15 10 11 12 21 27 21 33 0 6 7 13 15 16 8 4
12 11 8 17 -4 6 0 8 9 4 12 -4 15 0 13 18 -1 14 2 22 6 19 5 -3 9 2 9 10 0 8
9 20 20 26 11 6 18 15 15 21 -4 5 -1 9 5 9 7 0 10 7 6 15 -3 8 0 14 7 12 7 -1
12 5 12 13 0 8 10 25 23 38 13 12 20 22 16 22 -4 0 0 6 11 13 11 9 15 19 10
27 -6 9 -4 11 5 5 10 -6 12 -3 8 13 -4 16 -2 19 10 15 10 -4 13 -2 8 5 -4 7
-2 12 3 12 6 0 11 8 11 18 0 9 9 28 20 42 11 14 20 33 20 44 0 11 5 16 13 13
8 -3 14 1 14 9 0 7 -4 11 -9 8 -4 -3 -8 0 -8 5 0 6 6 11 14 11 9 0 12 7 9 20
-3 12 1 22 10 26 9 3 13 12 10 21 -4 11 -2 14 5 9 8 -4 10 -2 6 7 -3 8 0 18 6
22 8 5 7 11 -2 23 -10 12 -10 14 0 8 8 -5 12 0 12 13 0 12 4 21 10 21 5 0 6 7
3 17 -4 10 -2 14 4 10 6 -4 17 11 26 33 8 22 12 38 7 35 -4 -3 -3 6 3 20 7 14
15 25 20 25 4 0 7 5 7 11 0 5 -5 7 -11 3 -6 -3 -4 5 5 18 9 14 13 28 9 31 -3
4 2 7 13 8 10 0 13 3 7 6 -7 2 -13 14 -13 24 0 11 5 17 10 14 6 -3 10 1 10 10
0 10 5 13 13 9 9 -6 9 -5 0 7 -10 12 -9 21 2 42 8 15 10 29 4 32 -5 4 -9 11
-9 16 0 6 4 8 9 4 6 -3 9 4 8 15 -1 11 -6 20 -12 20 -5 0 -2 5 7 11 16 9 16
13 5 42 -15 34 -12 61 5 51 6 -4 6 1 -1 13 -6 11 -7 23 -4 27 3 3 1 6 -7 6 -9
0 -10 3 -1 13 8 10 7 17 -1 25 -6 6 -13 26 -14 44 -1 18 -3 35 -3 37 -1 2 -9
-3 -18 -10 -11 -10 -14 -10 -9 -1 4 7 2 12 -6 12 -9 0 -9 3 2 10 15 9 13 11
-12 14 -7 1 -12 9 -10 19 2 10 -3 17 -13 17 -10 0 -13 5 -9 13 5 7 0 6 -11 -3
-11 -9 -16 -10 -11 -2 4 7 2 12 -4 12 -6 0 -9 4 -6 9 3 5 -1 12 -10 15 -8 3
-12 2 -9 -4 3 -6 -1 -7 -9 -4 -9 3 -14 10 -11 14 3 4 -9 10 -26 12 -16 3 -32
1 -35 -3 -8 -14 -35 3 -29 19 4 12 3 13 -10 2 -8 -7 -13 -16 -10 -20 3 -5 -11
-7 -31 -4 -27 3 -34 1 -28 -8 4 -7 4 -10 -1 -6 -4 4 -15 2 -23 -5 -13 -9 -14
-9 -8 1 4 6 2 12 -3 12 -6 0 -11 -5 -11 -12 0 -6 -3 -8 -7 -5 -3 4 -12 -1 -20
-11 -8 -9 -12 -11 -8 -4 3 6 2 12 -4 12 -5 0 -13 -9 -16 -20 -4 -11 -10 -18
-15 -15 -5 3 -15 -4 -23 -16 -11 -15 -16 -17 -20 -7 -4 9 -6 8 -6 -4 -1 -9 -6
-20 -13 -24 -7 -4 -8 -3 -4 4 4 7 2 12 -3 12 -6 0 -11 -10 -11 -21 0 -17 -3
-19 -14 -10 -11 9 -14 8 -12 -6 0 -10 -6 -18 -14 -18 -8 -1 -14 -7 -12 -14 1
-7 -2 -10 -7 -7 -5 3 -21 -4 -35 -15 -15 -12 -33 -19 -40 -16 -10 4 -12 -1 -9
-16 4 -17 2 -19 -5 -8 -8 12 -14 12 -25 3 -7 -7 -17 -9 -20 -5 -4 3 -7 1 -7
-6 0 -7 -6 -11 -14 -8 -8 3 -17 -1 -20 -9 -3 -8 -11 -14 -18 -14 -9 0 -8 3 2
10 10 7 11 10 2 10 -7 0 -15 -7 -19 -16 -4 -10 -8 -12 -13 -4 -3 6 -14 8 -23
4 -9 -3 -15 -10 -12 -14 3 -4 -2 -10 -10 -14 -8 -3 -17 -1 -20 5 -4 5 -11 7
-16 3 -5 -3 -7 -9 -4 -14 3 -4 -4 -6 -16 -3 -12 4 -25 0 -30 -8 -7 -12 -9 -12
-9 1 -1 12 -3 11 -11 -2 -5 -10 -15 -18 -22 -18 -7 0 -6 4 3 10 9 6 10 10 3
10 -6 0 -19 -7 -28 -16 -10 -10 -27 -15 -45 -12 -17 3 -30 1 -30 -4 0 -5 -4
-6 -10 -3 -5 3 -10 0 -10 -7 0 -9 -3 -9 -10 2 -7 10 -12 12 -17 4 -8 -11 -18
-13 -78 -17 -23 -1 -34 -6 -31 -14 4 -9 -1 -10 -18 -3 -12 4 -29 4 -36 0 -8
-5 -18 -6 -22 -3 -5 2 -15 -1 -23 -7 -12 -10 -15 -10 -15 1 0 8 -6 6 -16 -7
-8 -10 -13 -13 -9 -6 3 6 1 12 -4 12 -6 0 -11 -4 -11 -10 0 -5 -5 -10 -11 -10
-5 0 -7 6 -3 13 6 9 5 9 -8 0 -8 -7 -18 -10 -21 -6 -4 3 -13 0 -21 -6 -10 -8
-16 -9 -21 -1 -3 5 -11 10 -16 10 -6 0 -7 -4 -4 -10 3 -5 1 -10 -4 -10 -6 0
-11 6 -11 13 0 8 -4 7 -10 -3 -8 -12 -10 -12 -10 -1 0 11 -3 11 -15 1 -11 -9
-15 -9 -15 -1 0 7 -5 9 -12 4 -7 -4 -23 -8 -35 -9 -12 0 -28 -6 -35 -12 -8 -6
-23 -10 -33 -8 -25 4 -66 -14 -59 -26 8 -12 -19 -5 -28 7 -4 6 -8 2 -8 -7 0
-14 -8 -18 -32 -18 -25 0 -29 -3 -18 -10 12 -8 11 -10 -7 -10 -12 0 -25 -5
-29 -11 -3 -6 -18 -8 -33 -5 -17 4 -21 3 -13 -2 11 -7 10 -10 -3 -16 -9 -3
-21 -4 -25 -1 -5 3 -12 0 -16 -6 -5 -8 -3 -9 6 -4 9 6 11 4 6 -4 -5 -7 -11
-10 -14 -7 -3 3 -12 0 -20 -7 -13 -9 -14 -9 -8 1 4 6 2 12 -3 12 -6 0 -11 -5
-11 -11 0 -8 -6 -7 -17 2 -15 13 -15 12 -4 -9 l12 -23 -28 18 c-22 14 -26 15
-15 2 11 -14 9 -16 -14 -11 -21 4 -25 2 -19 -8 6 -9 1 -8 -14 2 -22 16 -65 13
-55 -3 3 -5 -2 -6 -11 -2 -12 4 -13 8 -5 13 8 5 9 9 1 11 -7 3 -7 9 -1 19 8
13 10 12 10 -2 0 -10 4 -18 10 -18 11 0 -9 51 -25 62 -5 4 1 8 14 8 24 0 24 0
5 16 -10 8 -13 13 -6 9 15 -7 16 7 2 21 -7 7 -6 11 4 11 8 0 13 -3 11 -7 -2
-3 1 -12 7 -20 8 -12 9 -12 4 2 -3 10 -1 20 5 23 9 6 7 35 -7 69 -5 12 -4 17
3 13 14 -9 10 37 -5 55 -6 8 -8 19 -4 23 4 5 1 5 -6 1 -10 -6 -10 -11 -1 -22
8 -10 8 -14 0 -14 -10 0 -15 14 -12 34 4 19 -11 45 -23 40 -8 -3 -23 8 -36 26
-19 26 -20 33 -8 47 7 9 8 14 2 10 -11 -6 -69 31 -61 39 2 3 -10 20 -28 38
-30 32 -44 71 -21 60 6 -3 4 0 -4 8 -37 32 -43 47 -29 65 12 15 12 16 -3 11
-17 -7 -53 24 -42 35 4 4 1 13 -6 22 -9 11 -16 12 -26 4 -9 -8 -15 -5 -24 11
-6 11 -15 18 -21 15 -5 -4 -9 -1 -9 5 0 7 -9 6 -27 -2 -35 -17 -56 -16 -76 0
-12 11 -20 8 -45 -18 -18 -18 -33 -26 -37 -20 -4 6 -23 -6 -45 -29 -27 -27
-46 -39 -60 -36 -11 2 -20 0 -20 -5 0 -5 -7 -7 -15 -4 -8 4 -12 11 -8 18 4 6
-1 5 -11 -3 -13 -11 -14 -16 -4 -23 10 -7 10 -9 -2 -5 -8 2 -14 11 -12 21 2 9
-2 16 -8 16 -5 0 -10 -6 -10 -12 0 -9 -3 -8 -9 2 -13 20 -5 29 22 23 15 -3 12
1 -10 12 -18 10 -30 21 -27 26 3 5 0 9 -7 9 -7 0 -9 3 -6 7 4 3 2 12 -5 20 -9
11 -7 12 8 8 16 -5 15 -4 -2 7 -12 7 -19 19 -16 27 3 8 0 11 -6 7 -12 -7 -35
28 -25 38 3 3 1 6 -6 6 -7 0 -9 5 -6 10 3 6 1 10 -5 10 -6 0 -8 6 -4 13 4 6 4
9 0 6 -10 -10 -56 39 -56 59 0 15 -2 15 -10 2 -8 -12 -10 -9 -10 14 0 20 -4
27 -14 23 -10 -4 -13 1 -10 16 2 12 1 16 -2 9 -4 -9 -12 -2 -24 20 -10 18 -16
36 -13 41 2 4 -1 7 -7 7 -7 0 -10 7 -6 15 3 8 1 15 -5 15 -6 0 -7 5 -4 10 3 6
1 10 -4 10 -6 0 -11 5 -11 11 0 5 6 7 13 3 8 -6 8 -3 -1 9 -8 9 -10 22 -6 28
5 8 3 9 -6 4 -10 -6 -12 -4 -7 8 3 9 2 19 -3 22 -6 4 -6 14 1 27 8 16 8 19 -1
13 -9 -5 -10 -1 -5 15 5 16 4 20 -4 15 -8 -5 -10 2 -6 22 5 21 4 25 -4 13 -9
-12 -11 -10 -9 10 1 32 -4 51 -19 68 -20 21 -16 37 5 21 9 -7 2 2 -15 20 -33
33 -37 43 -33 70 1 8 -4 12 -14 8 -10 -4 -14 0 -11 13 2 10 -3 21 -12 24 -9 4
-14 9 -11 12 9 8 -45 64 -62 64 -13 0 -13 1 0 10 13 9 13 10 0 10 -8 0 -21 9
-28 20 -7 11 -19 20 -26 20 -8 0 -18 5 -22 12 -5 7 -2 9 7 4 8 -4 5 -1 -5 8
-10 8 -23 13 -27 10 -5 -3 -9 2 -9 10 0 9 -5 16 -11 16 -5 0 -7 4 -4 10 3 6
-1 7 -9 4 -11 -4 -16 0 -16 12 0 16 -2 17 -10 4 -5 -8 -10 -10 -10 -4 0 5 -7
19 -16 30 -8 10 -13 13 -9 7 10 -21 -13 -15 -28 7 -8 11 -17 17 -20 13 -4 -3
-7 1 -7 10 0 10 -5 14 -14 11 -8 -3 -19 3 -25 15 -7 12 -17 18 -27 14 -8 -3
-14 -2 -13 3 4 23 -2 33 -18 27 -11 -4 -14 -3 -9 5 5 8 0 12 -14 12 -14 0 -19
4 -14 12 5 8 2 9 -9 5 -11 -4 -17 -1 -17 8 0 8 -5 15 -11 15 -6 0 -17 7 -26
16 -9 8 -22 13 -30 9 -10 -3 -13 -1 -10 9 3 8 -2 16 -15 19 -12 4 -17 10 -13
17 5 9 1 10 -14 5 -15 -4 -21 -2 -21 9 0 10 -7 13 -20 11 -12 -2 -18 0 -15 6
4 5 -9 16 -27 24 -36 17 -70 37 -78 46 -3 3 -13 5 -23 3 -15 -2 -16 0 -5 14 7
9 8 14 4 10 -5 -4 -16 -2 -24 5 -13 10 -15 9 -8 -3 6 -12 4 -11 -6 1 -7 9 -19
14 -25 12 -7 -3 -13 1 -13 7 0 7 -7 10 -15 6 -8 -3 -15 -1 -15 4 0 6 -7 10
-15 10 -8 0 -14 6 -13 13 2 7 -6 11 -20 10 -16 -2 -21 1 -16 10 5 7 0 6 -11
-3 -15 -12 -17 -12 -10 -1 6 11 4 13 -8 8 -10 -3 -17 -2 -17 3 0 5 -7 6 -17 3
-12 -5 -14 -3 -8 8 7 11 5 11 -10 -1 -10 -8 -16 -10 -12 -3 10 16 -14 22 -37
11 -13 -7 -16 -7 -12 1 4 6 4 11 -1 12 -41 4 -69 12 -75 22 -5 9 -8 8 -9 -3 0
-10 -3 -8 -9 5 -8 19 -9 19 -9 1 -1 -20 -1 -20 -17 0 -8 10 -12 12 -8 4 7 -13
5 -13 -9 -2 -9 8 -21 11 -27 7 -5 -3 -10 -1 -10 5 0 6 -5 8 -12 3 -16 -9 -49
-5 -66 10 -10 8 -16 7 -23 -4 -7 -12 -9 -12 -9 1 0 13 -1 13 -10 0 -7 -11 -10
-12 -10 -2 0 9 -7 11 -20 7 -12 -4 -28 -1 -37 7 -15 11 -16 11 -10 -6 6 -15 5
-17 -6 -8 -7 6 -24 8 -37 5 -14 -4 -21 -2 -17 4 7 11 -34 9 -54 -2 -6 -4 -15
-1 -20 6 -7 12 -9 12 -9 0z m690 -115 c0 -3 -4 -8 -10 -11 -5 -3 -10 -1 -10 4
0 6 5 11 10 11 6 0 10 -2 10 -4z m-1190 -56 c0 -5 -5 -10 -11 -10 -5 0 -7 5
-4 10 3 6 8 10 11 10 2 0 4 -4 4 -10z m741 -764 c38 -21 56 -36 49 -41 -27
-17 -89 -129 -106 -192 -9 -37 -18 -69 -20 -71 -1 -2 -18 7 -38 20 -35 23 -36
24 -36 91 0 90 15 147 52 191 16 20 31 36 34 36 2 0 31 -15 65 -34z m103 -98
c-19 -33 -26 -38 -40 -27 -11 9 -11 15 -3 25 15 18 53 19 43 2z m150 -100 c11
-17 34 -48 52 -68 l34 -37 -29 -40 c-34 -47 -98 -102 -127 -109 -29 -7 -144
72 -117 80 35 11 111 97 134 151 13 30 26 55 29 55 3 0 14 -14 24 -32z m1798
-465 c-6 -3 -10 -9 -7 -14 4 -5 -1 -6 -10 -3 -14 6 -14 8 2 19 10 8 20 11 23
8 3 -3 -1 -8 -8 -10z m118 3 c0 -2 -7 -7 -16 -10 -8 -3 -12 -2 -9 4 6 10 25
14 25 6z m75 -26 c3 -5 1 -10 -4 -10 -6 0 -11 5 -11 10 0 6 2 10 4 10 3 0 8
-4 11 -10z m119 -218 c3 -5 -1 -9 -9 -9 -8 0 -15 4 -15 9 0 4 4 8 9 8 6 0 12
-4 15 -8z m62 -70 c-2 -1 -15 4 -29 11 -15 8 -24 17 -21 20 6 6 55 -25 50 -31z
m111 -157 c0 -8 -4 -12 -9 -9 -5 3 -6 10 -3 15 9 13 12 11 12 -6z m-2727 -35
c0 -5 -4 -10 -10 -10 -5 0 -10 5 -10 10 0 6 5 10 10 10 6 0 10 -4 10 -10z m49
3 c-4 -23 3 -33 21 -33 11 0 20 -5 20 -11 0 -8 6 -7 18 2 9 7 14 10 10 5 -11
-13 25 -42 55 -44 5 0 15 -9 24 -19 8 -10 12 -12 8 -5 -3 6 -2 12 3 12 5 0 12
-9 15 -21 3 -12 10 -18 17 -14 6 4 21 -1 32 -12 15 -12 19 -13 14 -3 -4 8 0 6
8 -4 9 -11 19 -17 22 -13 4 4 13 -1 20 -11 12 -17 16 -18 55 -21 11 0 17 -6
14 -11 -4 -6 -3 -10 2 -9 29 5 53 -2 47 -13 -5 -8 0 -7 11 2 17 14 18 13 12
-2 -4 -12 -2 -15 9 -11 7 3 14 0 14 -6 0 -6 5 -11 11 -11 5 0 7 6 3 13 -4 6 2
4 13 -6 11 -9 23 -14 26 -10 4 3 7 1 7 -5 0 -7 3 -11 8 -11 28 5 52 -2 46 -13
-5 -9 -2 -9 9 1 11 9 17 10 17 2 0 -6 11 -11 25 -11 14 0 25 -6 26 -12 0 -10
2 -10 6 -1 3 10 10 10 24 2 11 -5 25 -7 31 -3 7 4 8 3 4 -5 -6 -8 0 -10 18 -5
16 4 26 2 26 -5 0 -6 5 -11 11 -11 5 0 7 6 3 13 -4 6 3 3 16 -8 13 -11 20 -14
16 -7 -4 6 -3 12 2 12 6 0 12 -7 16 -15 3 -8 12 -12 21 -9 8 3 12 11 8 18 -3
6 4 2 17 -9 14 -12 20 -14 15 -5 -8 13 -7 13 8 1 14 -11 20 -11 33 -1 12 11
15 11 12 -1 -2 -9 5 -14 20 -13 12 1 22 -3 22 -8 0 -5 4 -7 8 -4 13 8 72 -25
65 -37 -3 -5 -1 -7 5 -4 14 9 43 -3 36 -14 -3 -5 0 -9 6 -9 6 0 9 -4 5 -9 -3
-6 4 -8 16 -6 16 3 19 0 15 -12 -4 -11 -2 -14 9 -9 8 3 14 2 14 -2 -4 -24 4
-40 25 -52 16 -8 22 -18 18 -28 -4 -12 -1 -14 13 -8 11 4 16 4 12 0 -4 -4 -2
-13 4 -21 6 -7 8 -13 4 -13 -4 0 -2 -6 4 -14 10 -11 6 -20 -16 -40 -15 -14
-24 -26 -19 -26 5 0 3 -7 -4 -15 -10 -12 -16 -13 -27 -4 -11 10 -12 8 -7 -6 5
-13 4 -16 -4 -11 -7 4 -12 3 -12 -2 0 -5 -7 -9 -15 -9 -8 0 -15 4 -15 9 0 5
-5 6 -10 3 -6 -4 -8 -10 -6 -14 3 -4 -1 -8 -9 -8 -8 0 -15 5 -15 10 0 5 -7 3
-17 -4 -13 -11 -17 -11 -21 -1 -3 10 -7 10 -20 0 -13 -11 -15 -11 -7 2 6 12 5
13 -5 3 -10 -9 -19 -8 -39 4 -25 15 -25 14 -6 -2 l20 -18 -20 8 c-11 4 -31 10
-45 12 -25 5 -59 17 -94 35 -12 7 -16 6 -11 -1 3 -6 1 -11 -4 -11 -6 0 -11 6
-11 14 0 10 -8 13 -24 10 -13 -2 -29 2 -36 11 -7 8 -21 15 -32 15 -10 0 -16 4
-13 10 3 6 -1 7 -10 3 -13 -4 -14 -7 -3 -14 9 -6 6 -8 -9 -6 -12 0 -19 5 -17
9 3 4 1 8 -5 8 -5 0 -13 -5 -17 -11 -4 -7 -10 -7 -16 -1 -6 6 -16 8 -23 6 -7
-3 -16 -1 -20 5 -3 7 0 8 9 5 9 -3 16 -2 16 4 0 16 -21 9 -67 -22 -53 -35 -74
-66 -61 -89 6 -11 5 -17 -1 -17 -5 0 -11 6 -14 13 -2 6 -3 -9 -2 -35 1 -26 -1
-45 -6 -43 -4 3 -6 14 -4 25 2 12 0 18 -4 15 -5 -2 -7 -18 -6 -35 1 -16 -1
-28 -5 -25 -4 3 -10 -2 -13 -10 -4 -8 -1 -13 6 -11 7 1 9 1 4 -1 -4 -3 -5 -9
-2 -14 4 -5 0 -6 -8 -3 -8 3 -18 1 -22 -5 -8 -14 -25 -14 -25 0 0 5 4 8 9 4 5
-3 12 -1 16 4 3 6 -4 8 -17 4 -33 -7 -66 -5 -98 7 -3 1 -8 2 -12 1 -5 0 -7 2
-6 7 2 4 -12 22 -30 41 -17 19 -32 38 -32 42 0 5 -7 5 -17 2 -11 -5 -14 -3 -8
6 5 9 -2 22 -20 37 -16 13 -22 24 -15 24 8 0 4 7 -8 19 -12 10 -19 21 -15 25
3 3 -1 6 -11 6 -9 0 -14 5 -11 10 3 6 1 10 -4 10 -6 0 -11 7 -11 16 0 9 -5 12
-12 8 -6 -4 -8 -3 -4 4 3 6 -1 17 -9 25 -8 9 -15 21 -15 27 0 6 -7 18 -15 27
-8 8 -13 19 -10 24 4 5 1 9 -4 9 -6 0 -10 3 -9 8 3 14 -14 62 -21 57 -4 -2 -8
2 -8 10 0 8 4 12 9 9 5 -4 4 3 -4 15 -7 12 -16 21 -21 21 -4 0 -5 5 -2 10 4 6
10 8 14 6 4 -3 8 1 8 9 0 8 -3 14 -6 13 -19 -2 -22 4 -11 17 11 13 10 14 -6 9
-15 -6 -17 -4 -7 6 9 10 10 17 1 27 -9 11 -7 12 8 6 16 -6 17 -5 6 9 -19 24
-35 82 -19 71 7 -4 5 -1 -5 8 -17 16 -17 17 0 24 16 6 16 7 0 19 -19 14 -25
32 -8 21 6 -3 10 -2 10 4 0 5 -5 13 -10 16 -8 5 -7 11 1 21 7 9 8 14 3 12 -5
-2 -10 2 -11 7 -1 6 8 9 20 7 21 -2 21 -2 -3 13 -14 9 -18 14 -10 12 8 -2 29
4 45 14 36 21 35 21 34 12z m2681 -63 c0 -5 -2 -10 -4 -10 -3 0 -8 5 -11 10
-3 6 -1 10 4 10 6 0 11 -4 11 -10z m-50 -110 c-6 -11 -13 -20 -16 -20 -2 0 0
9 6 20 6 11 13 20 16 20 2 0 0 -9 -6 -20z m73 -63 c-5 -8 -8 -7 -11 1 -2 7 -9
9 -14 6 -7 -4 -8 -2 -4 4 4 6 13 9 21 6 8 -4 12 -11 8 -17z m-2177 -432 c-11
-8 -23 -15 -28 -15 -4 0 -8 -7 -8 -15 0 -8 -5 -15 -11 -15 -5 0 -7 -5 -3 -12
4 -7 3 -8 -5 -4 -14 9 9 45 41 63 31 17 37 16 14 -2z m194 9 c0 -8 -19 -13
-24 -6 -3 5 1 9 9 9 8 0 15 -2 15 -3z m502 -1 c-6 -2 -9 -10 -6 -15 4 -7 2 -8
-5 -4 -13 9 -5 26 12 25 9 0 8 -2 -1 -6z m3502 -1152 c-2 -3 -12 3 -22 13 -16
17 -16 18 5 5 12 -7 20 -15 17 -18z"/>
<path d="M3740 5730 c0 -5 5 -10 11 -10 5 0 7 5 4 10 -3 6 -8 10 -11 10 -2 0
-4 -4 -4 -10z"/>
<path d="M2815 5460 c3 -5 8 -10 11 -10 2 0 4 5 4 10 0 6 -5 10 -11 10 -5 0
-7 -4 -4 -10z"/>
<path d="M4096 7557 c3 -10 9 -15 12 -12 3 3 0 11 -7 18 -10 9 -11 8 -5 -6z"/>
<path d="M4947 6776 c-3 -8 1 -20 9 -26 10 -9 14 -9 14 -1 0 6 -4 11 -10 11
-5 0 -7 7 -4 15 4 8 4 15 1 15 -3 0 -7 -6 -10 -14z"/>
<path d="M4606 6763 c-6 -14 -5 -15 5 -6 7 7 10 15 7 18 -3 3 -9 -2 -12 -12z"/>
<path d="M4570 6739 c0 -5 5 -7 10 -4 6 3 10 8 10 11 0 2 -4 4 -10 4 -5 0 -10
-5 -10 -11z"/>
<path d="M4980 6713 c0 -13 17 -26 38 -29 6 -1 10 2 6 7 -3 5 -9 7 -14 4 -5
-3 -13 3 -19 12 -6 10 -11 13 -11 6z"/>
<path d="M7035 6690 c-3 -5 -1 -10 4 -10 6 0 11 5 11 10 0 6 -2 10 -4 10 -3 0
-8 -4 -11 -10z"/>
<path d="M5015 6630 c3 -5 8 -10 11 -10 2 0 4 5 4 10 0 6 -5 10 -11 10 -5 0
-7 -4 -4 -10z"/>
<path d="M5135 6466 c10 -14 19 -26 22 -26 7 0 -17 39 -28 46 -6 3 -3 -5 6
-20z"/>
<path d="M1300 4646 c0 -2 7 -7 16 -10 8 -3 12 -2 9 4 -6 10 -25 14 -25 6z"/>
<path d="M7190 4576 c0 -2 8 -10 18 -17 15 -13 16 -12 3 4 -13 16 -21 21 -21
13z"/>
<path d="M1720 3510 c-6 -11 -8 -20 -6 -20 3 0 10 9 16 20 6 11 8 20 6 20 -3
0 -10 -9 -16 -20z"/>
<path d="M8115 3250 c4 -6 11 -8 16 -5 14 9 11 15 -7 15 -8 0 -12 -5 -9 -10z"/>
<path d="M7325 3190 c-3 -6 1 -7 9 -4 18 7 21 14 7 14 -6 0 -13 -4 -16 -10z"/>
<path d="M7290 3129 c0 -5 5 -7 10 -4 6 3 10 8 10 11 0 2 -4 4 -10 4 -5 0 -10
-5 -10 -11z"/>
<path d="M5585 1080 c-3 -6 1 -7 9 -4 18 7 21 14 7 14 -6 0 -13 -4 -16 -10z"/>
</g>
</svg>
